# xmcd
#
# Track frame offsets: 
#        150
#        16143
#        43895
#        64981
#        78550
#        88839
#        112416
#        127062
#        139270
#        146383
#        169857
#        187012
#
# Disc length: 2731 seconds
#
# Revision: 0
# Processed by: cddbd v1.5.2PL0 Copyright (c) Steve Scherf et al.
# Submitted via: ExactAudioCopyFreeDBPlugin 1.0
#
DISCID=b80aa90c
DTITLE=Mojo Makers - Song Of The Sirens
DYEAR=2018
DGENRE=Blues Rock
TTITLE0=A Hymn To Woodstock
TTITLE1=Away
TTITLE2=Song Of The Sirens
TTITLE3=Bless My Soul
TTITLE4=I'll Mind You
TTITLE5=You Move Me
TTITLE6=One for The Money
TTITLE7=The Pearl Made of Amatyst
TTITLE8=You Got Me Blinded
TTITLE9=An Apology Song
TTITLE10=Take a Bee
TTITLE11=Lika A Song
EXTD=
EXTT0=
EXTT1=
EXTT2=
EXTT3=
EXTT4=
EXTT5=
EXTT6=
EXTT7=
EXTT8=
EXTT9=
EXTT10=
EXTT11=
PLAYORDER=
